<svg width="25" height="26" viewBox="0 0 25 26" fill="none" xmlns="http://www.w3.org/2000/svg">
<path d="M19.7904 21.3736C19.7904 21.9259 19.3427 22.3736 18.7904 22.3736H6.20703C5.65475 22.3736 5.20703 21.9259 5.20703 21.3736V9.77344C5.20703 9.22115 5.65475 8.77344 6.20703 8.77344H18.7904C19.3427 8.77344 19.7904 9.22115 19.7904 9.77344V21.3736ZM6.11849 20.4669C6.11849 21.0192 6.5662 21.4669 7.11849 21.4669H17.8789C18.4312 21.4669 18.8789 21.0192 18.8789 20.4669V10.6801C18.8789 10.1278 18.4312 9.68011 17.8789 9.68011H7.11849C6.56621 9.68011 6.11849 10.1278 6.11849 10.6801V20.4669Z" fill="#1D1D1D"/>
<path d="M17.3102 9.68159H7.68969L7.61039 9.32709C7.52654 8.95716 7.48828 8.64345 7.48828 8.33971C7.48828 5.74027 9.73592 3.625 12.4995 3.625C15.2639 3.625 17.5125 5.74027 17.5125 8.33971C17.5125 8.64345 17.4742 8.95807 17.3903 9.32709L17.3102 9.68159ZM8.43345 8.77491H16.5682C16.591 8.61987 16.6019 8.47753 16.6019 8.33971C16.6019 6.23985 14.7617 4.53168 12.5004 4.53168C10.24 4.53168 8.40063 6.23985 8.40063 8.33971C8.39972 8.47753 8.41067 8.61987 8.43345 8.77491Z" fill="#1D1D1D"/>
</svg>
