<svg width="25" height="25" viewBox="0 0 25 25" fill="none" xmlns="http://www.w3.org/2000/svg">
<path fill-rule="evenodd" clip-rule="evenodd" d="M3.64583 6.24479C3.35819 6.24479 3.125 6.01161 3.125 5.72396C3.125 5.43631 3.35819 5.20312 3.64583 5.20312H21.3542C21.6418 5.20312 21.875 5.43631 21.875 5.72396C21.875 6.01161 21.6418 6.24479 21.3542 6.24479H3.64583ZM3.125 11.974C3.125 12.2616 3.35818 12.4948 3.64583 12.4948H21.3542C21.6418 12.4948 21.875 12.2616 21.875 11.974C21.875 11.6863 21.6418 11.4531 21.3542 11.4531H3.64583C3.35818 11.4531 3.125 11.6863 3.125 11.974ZM3.125 18.224C3.125 18.5116 3.35818 18.7448 3.64583 18.7448H21.3542C21.6418 18.7448 21.875 18.5116 21.875 18.224C21.875 17.9363 21.6418 17.7031 21.3542 17.7031H3.64583C3.35819 17.7031 3.125 17.9363 3.125 18.224Z" fill="#1D1D1D"/>
</svg>
