<svg width="25" height="19" viewBox="0 0 25 19" fill="none" xmlns="http://www.w3.org/2000/svg">
<path d="M0.814558 9.3878C0.996464 9.22108 1.23915 9.00318 1.53331 8.7493C2.23114 8.14702 3.21584 7.34469 4.36387 6.54335C6.68723 4.92162 9.5758 3.37891 12.084 3.37891C14.5922 3.37891 17.4807 4.92162 19.8041 6.54335C20.9521 7.34469 21.9368 8.14702 22.6347 8.7493C22.9288 9.00318 23.1715 9.22108 23.3534 9.3878C23.1715 9.55451 22.9288 9.77241 22.6347 10.0263C21.9368 10.6286 20.9521 11.4309 19.8041 12.2322C17.4807 13.854 14.5922 15.3967 12.084 15.3967C9.5758 15.3967 6.68723 13.854 4.36387 12.2322C3.21584 11.4309 2.23114 10.6286 1.53331 10.0263C1.23915 9.77241 0.996464 9.55451 0.814558 9.3878Z" stroke="#1D1D1D"/>
<path d="M11.9932 12.2964C13.65 12.2964 14.9932 10.9532 14.9932 9.29639C14.9932 7.63953 13.65 6.29639 11.9932 6.29639C10.3363 6.29639 8.99316 7.63953 8.99316 9.29639C8.99316 10.9532 10.3363 12.2964 11.9932 12.2964Z" stroke="black"/>
<path d="M3.72559 1.90844L4.43676 1.19727L20.7938 17.5543L20.0827 18.2655L3.72559 1.90844Z" fill="#1D1D1D"/>
<path d="M4.41113 1.2229L5.12231 0.511719L21.4794 16.8688L20.7682 17.58L4.41113 1.2229Z" fill="white"/>
</svg>
