<svg width="16" height="16" viewBox="0 0 16 16" fill="none" xmlns="http://www.w3.org/2000/svg">
<path d="M7.99996 12.9381L2.7865 7.71276L2.76114 7.68733L2.73346 7.66445C2.70892 7.64416 2.68404 7.62174 2.65416 7.59337L2.61748 7.55319L2.59904 7.533L2.57919 7.5142C2.05003 7.01332 1.75 6.32382 1.75 5.58404C1.75 4.06059 3.07394 2.75 4.78823 2.75C5.86775 2.75 6.8392 3.28946 7.37063 4.10955L8.00003 5.08084L8.62944 4.10955C9.16078 3.28958 10.1328 2.75 11.2125 2.75C12.9266 2.75 14.25 4.0604 14.25 5.58404C14.25 6.3208 13.9529 7.01154 13.4006 7.53565L13.3878 7.54772L13.3757 7.56038C13.3116 7.62714 13.2925 7.64265 13.2761 7.65563L13.2421 7.68267L13.2114 7.71346L7.99996 12.9381Z" fill="#1D1D1D" stroke="#1D1D1D" stroke-width="1.5"/>
</svg>
