<svg width="16" height="16" viewBox="0 0 16 16" fill="none" xmlns="http://www.w3.org/2000/svg">
<path fill-rule="evenodd" clip-rule="evenodd" d="M2.25557 8.24248L8.00003 14L13.7424 8.24312C13.794 8.20213 13.8387 8.16109 13.9168 8.07969C14.6155 7.41673 15 6.5305 15 5.58404C15 3.60775 13.3014 2 11.2125 2C10.1442 2 9.14898 2.42964 8.45003 3.14114C8.28184 3.31236 8.1308 3.49989 8.00003 3.70169C7.86925 3.49988 7.71823 3.31233 7.55006 3.14111C6.85128 2.42962 5.85648 2 4.78823 2C2.69944 2 1 3.60775 1 5.58404C1 6.5305 1.38527 7.41679 2.06361 8.05888L2.11739 8.11779C2.16136 8.16011 2.20599 8.2015 2.25557 8.24248ZM2.6302 7.66346C2.66152 7.69324 2.68801 7.71719 2.71445 7.73905L2.73985 7.76004L7.99996 13.0321L13.2629 7.75581L13.2943 7.73095C13.3134 7.71579 13.3347 7.69813 13.4001 7.62993L13.4112 7.61843L13.4227 7.60743C13.9884 7.07069 14.3 6.35488 14.3 5.58404C14.3 3.97993 12.919 2.66667 11.2125 2.66667C10.1321 2.66667 9.14357 3.20638 8.59572 4.05182L8.00003 4.97108L7.40434 4.05182C6.85642 3.20627 5.86847 2.66667 4.78823 2.66667C3.08165 2.66667 1.7 3.9801 1.7 5.58404C1.7 6.3575 2.01426 7.07223 2.55706 7.58604L2.57513 7.60313L2.6302 7.66346Z" fill="#1D1D1D"/>
</svg>
