<svg width="24" height="29" viewBox="0 0 24 29" fill="none" xmlns="http://www.w3.org/2000/svg">
<path fill-rule="evenodd" clip-rule="evenodd" d="M20.0461 15.4245C20.0129 11.7602 23.0991 9.97789 23.2391 9.89546C21.4912 7.38991 18.7838 7.04775 17.8323 7.02053C15.5576 6.78568 13.3509 8.35807 12.193 8.35807C11.0106 8.35807 9.22701 7.04386 7.30346 7.08274C4.82785 7.11929 2.51359 8.52915 1.24494 10.7159C-1.37621 15.1718 0.578182 21.7273 3.0878 25.3355C4.34538 27.1007 5.81177 29.0682 7.73215 28.9982C9.6114 28.9204 10.3137 27.8162 12.5805 27.8162C14.8268 27.8162 15.4872 28.9904 17.4448 28.9437C19.4616 28.9126 20.7319 27.1707 21.9436 25.3899C23.3949 23.3681 23.9779 21.3695 24 21.2684C23.9525 21.2529 20.0849 19.7987 20.0453 15.405L20.0461 15.4245ZM16.3462 4.64873C17.357 3.40606 18.0483 1.71547 17.8568 0C16.3936 0.0622112 14.5642 0.995379 13.5107 2.2085C12.579 3.28164 11.7469 5.03133 11.9605 6.6877C13.604 6.80435 15.2919 5.87118 16.3462 4.64251V4.64873Z" fill="#828282"/>
</svg>
