<svg width="20" height="20" viewBox="0 0 20 20" fill="none" xmlns="http://www.w3.org/2000/svg">
<path fill-rule="evenodd" clip-rule="evenodd" d="M16 8.5C16 12.6421 12.6421 16 8.5 16C4.35786 16 1 12.6421 1 8.5C1 4.35786 4.35786 1 8.5 1C12.6421 1 16 4.35786 16 8.5ZM14.2275 14.7806C12.7166 16.1593 10.7065 17 8.5 17C3.80558 17 0 13.1944 0 8.5C0 3.80558 3.80558 0 8.5 0C13.1944 0 17 3.80558 17 8.5C17 10.6282 16.2179 12.5736 14.9254 14.0647L19.4588 18.716C19.6515 18.9137 19.6537 19.2365 19.4637 19.437C19.2737 19.6375 18.9634 19.6398 18.7707 19.4421L14.2275 14.7806Z" fill="#666666"/>
</svg>
