<svg width="29" height="31" viewBox="0 0 29 31" fill="none" xmlns="http://www.w3.org/2000/svg">
<path fill-rule="evenodd" clip-rule="evenodd" d="M1.58316 1.375C1.23326 1.71323 1 2.27696 1 2.95342V27.87C1 28.5464 1.23326 29.1101 1.58316 29.4484L1.69979 29.5611L16.1621 15.5808V15.3553L1.58316 1.375Z" stroke="#828282"/>
<path fill-rule="evenodd" clip-rule="evenodd" d="M20.942 20.3138L16.1602 15.6912V15.353L20.942 10.7305L21.0587 10.8432L26.7736 14.0001C28.4064 14.902 28.4064 16.3677 26.7736 17.2696L20.942 20.3138V20.3138Z" stroke="#828282"/>
<path d="M21.0595 20.204L16.1609 15.4688L1.58203 29.5618C2.16519 30.1255 2.98161 30.1255 4.03129 29.6746L21.0595 20.204" stroke="#828282"/>
<path fill-rule="evenodd" clip-rule="evenodd" d="M21.0595 10.7362L4.03129 1.37843C2.98161 0.81471 2.16519 0.927454 1.58203 1.49118L16.1609 15.4715L21.0595 10.7362V10.7362Z" stroke="#828282"/>
<path opacity="0.25" fill-rule="evenodd" clip-rule="evenodd" d="M4.02906 1.48751L26.7722 14.0021C27.472 14.4531 27.9385 14.9041 27.9385 15.4678C27.9385 14.9041 27.5886 14.3404 26.7722 13.8894L4.02906 1.37476C2.39623 0.472806 1.11328 1.26202 1.11328 3.06593V3.17867C1.11328 1.37476 2.39623 0.58555 4.02906 1.48751Z" fill="white" stroke="#828282"/>
</svg>
