<svg width="26" height="25" viewBox="0 0 26 25" fill="none" xmlns="http://www.w3.org/2000/svg">
<path d="M21.332 13C21.6082 13 21.832 12.7761 21.832 12.5C21.832 12.2239 21.6082 12 21.332 12L21.332 13ZM4.66537 12C4.38923 12 4.16537 12.2239 4.16537 12.5C4.16537 12.7761 4.38922 13 4.66537 13L4.66537 12ZM21.332 12L4.66537 12L4.66537 13L21.332 13L21.332 12Z" fill="#1D1D1D"/>
<path d="M20.9785 12.8523C21.1737 13.0475 21.4903 13.0475 21.6856 12.8523C21.8808 12.657 21.8808 12.3404 21.6856 12.1451L20.9785 12.8523ZM14.3939 4.85348C14.1987 4.65822 13.8821 4.65822 13.6868 4.85348C13.4915 5.04874 13.4915 5.36532 13.6868 5.56058L14.3939 4.85348ZM21.6856 12.1451L14.3939 4.85348L13.6868 5.56058L20.9785 12.8523L21.6856 12.1451Z" fill="#1D1D1D"/>
<path d="M20.9785 12.1438C21.1737 11.9486 21.4903 11.9486 21.6856 12.1438C21.8808 12.3391 21.8808 12.6557 21.6856 12.8509L20.9785 12.1438ZM14.3939 20.1426C14.1987 20.3379 13.8821 20.3379 13.6868 20.1426C13.4915 19.9474 13.4915 19.6308 13.6868 19.4355L14.3939 20.1426ZM21.6856 12.8509L14.3939 20.1426L13.6868 19.4355L20.9785 12.1438L21.6856 12.8509Z" fill="#1D1D1D"/>
</svg>
