<svg width="164" height="12" viewBox="0 0 164 12" fill="none" xmlns="http://www.w3.org/2000/svg">
<path d="M7.546 1.522H5.488C2.674 1.522 0.49 2.642 0.49 5.582V5.694C0.49 8.634 2.674 9.936 5.516 9.936H7.546V11.14H10.878V9.936H12.908C15.75 9.936 17.934 8.634 17.934 5.694V5.582C17.934 2.642 15.75 1.522 12.936 1.522H10.878V0.444H7.546V1.522ZM7.546 3.986V7.472H6.202C4.816 7.472 3.976 6.968 3.976 5.694V5.582C3.976 4.462 4.844 3.986 6.202 3.986H7.546ZM10.878 3.986H12.208C13.594 3.986 14.448 4.462 14.448 5.582V5.694C14.448 6.968 13.594 7.472 12.208 7.472H10.878V3.986ZM28.6357 11H31.9677V0.584H28.6357L23.0077 7.22V0.584H19.6617V11H23.0077L28.6357 4.364V11ZM46.5373 7.864C46.5373 6.408 45.3053 5.68 44.1853 5.456C45.2493 5.162 46.1733 4.574 46.1733 3.23V3.132C46.1733 1.382 44.1153 0.458 40.5173 0.458H40.0693C36.7653 0.458 33.9933 1.382 33.9933 3.93V4.098H37.5353C37.5773 2.978 38.7673 2.684 40.2793 2.684C42.0293 2.684 42.6873 2.992 42.6873 3.72C42.6873 4.392 41.9313 4.546 40.9793 4.546H38.3753V6.744H41.1753C42.4633 6.744 43.0513 7.024 43.0513 7.752C43.0513 8.536 42.2673 8.914 40.5733 8.914C38.4873 8.914 37.4513 8.494 37.4513 7.262H33.9093V7.388C33.9093 10.23 36.7793 11.182 40.1813 11.182H40.5173C44.3113 11.182 46.5373 10.23 46.5373 8.004V7.864Z" fill="#FF300A"/>
<path d="M56.38 11H60.664L55.092 5.316L60.37 0.584H56.31L51.732 4.742V0.584H48.4V11H51.732V6.226L56.38 11ZM74.0907 0.584H70.4507L67.4407 5.904L64.2347 0.584H60.4407L64.8787 7.682C65.0327 7.92 65.0887 8.046 65.0887 8.2V8.214C65.0887 8.368 64.9907 8.438 64.8087 8.438H62.9607V11H65.4807C67.5947 11 68.4207 10.216 69.3167 8.69L74.0907 0.584ZM82.8263 11H86.1723V0.584H75.6163C75.6163 5.764 75.5603 6.772 75.2663 7.486C75.0563 7.934 74.7343 8.284 73.9643 8.284H73.7963V11H74.9163C77.0443 11 77.8143 10.132 78.2623 8.984C78.6543 7.878 78.8083 5.918 78.8083 3.062H82.8263V11ZM91.9823 0.584H88.6363V11H96.0423C99.5143 11 100.592 9.446 100.592 7.472V7.318C100.592 5.26 99.5703 3.818 96.0423 3.818H91.9823V0.584ZM91.9823 8.522V6.296H95.7623C96.6583 6.296 97.1063 6.716 97.1063 7.346V7.444C97.1063 8.102 96.6583 8.522 95.7623 8.522H91.9823ZM105.057 11H108.389V3.216H112.491V0.584H100.955V3.216H105.057V11ZM126.673 0.584H123.033L120.023 5.904L116.817 0.584H113.023L117.461 7.682C117.615 7.92 117.671 8.046 117.671 8.2V8.214C117.671 8.368 117.573 8.438 117.391 8.438H115.543V11H118.063C120.177 11 121.003 10.216 121.899 8.69L126.673 0.584ZM135.115 7.78C138.671 7.78 139.721 6.268 139.721 4.238V4.07C139.721 2.026 138.699 0.584 135.115 0.584H127.779V11H131.125V7.78H135.115ZM131.125 3.09H134.835C135.885 3.09 136.249 3.538 136.249 4.154V4.196C136.249 4.854 135.885 5.288 134.835 5.288H131.125V3.09ZM147.955 6.898H144.497L146.205 3.006L147.955 6.898ZM149.789 11H153.359L148.473 0.584H144.063L139.331 11H142.677L143.475 9.194H148.977L149.789 11ZM158.794 8.172C162.518 8.172 163.666 6.1 163.666 4.434V4.042C163.666 2.474 162.882 0.345999 158.822 0.345999H158.22C154.146 0.345999 153.32 2.46 153.32 4.07V4.434C153.32 6.114 154.23 8.172 158.22 8.172H158.794ZM154.608 4.21C154.608 2.852 154.93 1.368 158.486 1.368H158.57C162.042 1.368 162.406 2.964 162.406 4.154V4.238C162.406 5.526 162.028 7.15 158.556 7.15H158.486C154.916 7.15 154.608 5.568 154.608 4.28V4.21ZM157.786 3.93V3.174H158.948C159.284 3.174 159.382 3.342 159.382 3.552C159.382 3.762 159.284 3.93 158.948 3.93H157.786ZM157.786 4.966H158.906C159.284 4.966 159.382 5.134 159.382 5.484V5.89C159.382 6.1 159.438 6.156 159.494 6.226H161.342V6.156C161.272 6.058 161.244 5.974 161.244 5.75V5.078C161.244 4.588 160.922 4.28 160.292 4.182C160.782 4.084 161.188 3.804 161.188 3.258V3.216C161.188 2.698 160.824 2.208 159.522 2.208H155.952V6.226H157.786V4.966Z" fill="white"/>
</svg>
