<svg width="24" height="24" viewBox="0 0 24 24" fill="none" xmlns="http://www.w3.org/2000/svg">
<path d="M19.0967 20.5955H4.81101C4.17846 20.5955 3.65625 20.0774 3.65625 19.4266V6.95402C3.65625 6.30325 4.17846 5.78516 4.81101 5.78516H19.0967C19.7293 5.78516 20.2515 6.30325 20.2515 6.95402V19.4266C20.2515 20.0774 19.7293 20.5955 19.0967 20.5955Z" stroke="#1D1D1D" stroke-width="1.5"/>
<path d="M8.87527 5.11735C9.38726 3.70711 10.6369 2.7829 11.9647 2.7829C13.2925 2.7829 14.5422 3.7071 15.0541 5.11735H16.5466C15.9799 2.94176 14.1404 1.34375 11.9647 1.34375C9.78907 1.34375 7.94953 2.94176 7.38281 5.11735H8.87527Z" fill="#1D1D1D"/>
</svg>
