<svg width="24" height="24" viewBox="0 0 24 24" fill="none" xmlns="http://www.w3.org/2000/svg">
<path d="M12 19.9111L4.33736 11.8471L4.31254 11.821L4.28533 11.7974C4.2398 11.7578 4.19563 11.7156 4.14591 11.6658L4.0854 11.5962L4.0675 11.5756L4.04814 11.5564C3.2243 10.7376 2.75 9.60113 2.75 8.37606C2.75 5.83052 4.83728 3.75 7.41176 3.75C9.04249 3.75 10.534 4.60503 11.3618 5.94643L12 6.9806L12.6383 5.94643C13.466 4.60516 14.9584 3.75 16.5893 3.75C19.1637 3.75 21.25 5.83033 21.25 8.37606C21.25 9.59817 20.7788 10.7358 19.9232 11.5882L19.9108 11.6006L19.899 11.6136C19.801 11.7208 19.7622 11.7561 19.7233 11.7885L19.6897 11.8165L19.6596 11.8481L12 19.9111Z" stroke="black" stroke-width="1.5"/>
</svg>
