<svg width="24" height="14" viewBox="0 0 24 14" fill="none" xmlns="http://www.w3.org/2000/svg">
<path d="M12.0001 12.651C11.0293 12.651 9.82898 12.2771 8.53874 11.671C7.25899 11.0699 5.93862 10.2635 4.74138 9.44972C3.54575 8.637 2.48234 7.82326 1.7174 7.21224C1.40214 6.96041 1.13802 6.74338 0.936742 6.57549C1.13802 6.4076 1.40214 6.19056 1.71741 5.93873C2.48234 5.32772 3.54575 4.51398 4.74138 3.70126C5.93863 2.88743 7.25899 2.08112 8.53874 1.47998C9.82898 0.873906 11.0293 0.499999 12.0001 0.499999C12.9708 0.5 14.1711 0.873906 15.4614 1.47998C16.7411 2.08112 18.0615 2.88743 19.2587 3.70126C20.4544 4.51398 21.5178 5.32772 22.2827 5.93873C22.598 6.19056 22.8621 6.4076 23.0634 6.57549C22.8621 6.74337 22.598 6.96042 22.2827 7.21224C21.5178 7.82326 20.4544 8.637 19.2587 9.44972C18.0615 10.2635 16.7411 11.0699 15.4614 11.671C14.1711 12.2771 12.9708 12.651 12.0001 12.651Z" stroke="#1D1D1D"/>
<circle cx="12" cy="6.57568" r="3" fill="white" stroke="#1D1D1D"/>
</svg>
