<svg width="25" height="25" viewBox="0 0 25 25" fill="none" xmlns="http://www.w3.org/2000/svg">
<path fill-rule="evenodd" clip-rule="evenodd" d="M17.1882 3.625C16.0261 3.625 15.084 4.56707 15.084 5.72917C15.084 6.89127 16.0261 7.83333 17.1882 7.83333C18.3503 7.83333 19.2923 6.89127 19.2923 5.72917C19.2923 4.56707 18.3503 3.625 17.1882 3.625ZM14.084 5.72917C14.084 4.01478 15.4738 2.625 17.1882 2.625C18.9025 2.625 20.2923 4.01478 20.2923 5.72917C20.2923 7.44355 18.9025 8.83333 17.1882 8.83333C16.2381 8.83333 15.3878 8.40657 14.8184 7.7343L9.63322 10.8454C9.58118 10.8766 9.52574 10.8973 9.4694 10.908C9.5637 11.2048 9.61458 11.5209 9.61458 11.849C9.61458 12.2715 9.53014 12.6744 9.37721 13.0416C9.46452 13.0417 9.55292 13.0647 9.63322 13.1129L14.8184 16.224C15.3878 15.5518 16.2381 15.125 17.1882 15.125C18.9025 15.125 20.2923 16.5148 20.2923 18.2292C20.2923 19.9436 18.9025 21.3333 17.1882 21.3333C15.4738 21.3333 14.084 19.9436 14.084 18.2292C14.084 17.8236 14.1618 17.4362 14.3032 17.0811L9.11873 13.9704C9.04029 13.9234 8.97942 13.8582 8.93823 13.7835C8.36946 14.4963 7.49328 14.9531 6.51042 14.9531C4.79603 14.9531 3.40625 13.5633 3.40625 11.849C3.40625 10.1346 4.79603 8.74479 6.51042 8.74479C7.55312 8.74479 8.47575 9.2589 9.03865 10.0475C9.06285 10.0254 9.08957 10.0054 9.11873 9.98792L14.3032 6.87723C14.1618 6.52211 14.084 6.13472 14.084 5.72917ZM6.51042 9.74479C5.34832 9.74479 4.40625 10.6869 4.40625 11.849C4.40625 13.0111 5.34832 13.9531 6.51042 13.9531C7.67251 13.9531 8.61458 13.0111 8.61458 11.849C8.61458 10.6869 7.67251 9.74479 6.51042 9.74479ZM15.084 18.2292C15.084 17.0671 16.0261 16.125 17.1882 16.125C18.3503 16.125 19.2923 17.0671 19.2923 18.2292C19.2923 19.3913 18.3503 20.3333 17.1882 20.3333C16.0261 20.3333 15.084 19.3913 15.084 18.2292Z" fill="#1D1D1D"/>
</svg>
