<svg width="55" height="55" viewBox="0 0 55 55" fill="none" xmlns="http://www.w3.org/2000/svg">
<path fill-rule="evenodd" clip-rule="evenodd" d="M34.171 34.2662C36.3456 32.1168 37.6931 29.1323 37.6931 25.8331C37.6931 19.2849 32.3847 13.9766 25.8365 13.9766C19.2883 13.9766 13.98 19.2849 13.98 25.8331C13.98 32.3813 19.2883 37.6897 25.8365 37.6897C29.0042 37.6897 31.8817 36.4475 34.0085 34.4237C34.0295 34.391 34.0549 34.3602 34.0846 34.332C34.1114 34.3066 34.1404 34.2847 34.171 34.2662ZM35.1616 34.6839C37.3502 32.3787 38.6931 29.2627 38.6931 25.8331C38.6931 18.7326 32.937 12.9766 25.8365 12.9766C18.7361 12.9766 12.98 18.7326 12.98 25.8331C12.98 32.9336 18.7361 38.6897 25.8365 38.6897C29.1478 38.6897 32.1666 37.4379 34.4457 35.3818L41.4745 42.2324C41.6722 42.4251 41.995 42.4273 42.1955 42.2373C42.396 42.0473 42.3983 41.737 42.2006 41.5443L35.1616 34.6839Z" fill="#1D1D1D"/>
<line x1="0.5" y1="-0.5" x2="8.5" y2="-0.5" transform="matrix(1 8.74228e-08 8.74228e-08 -1 21.6089 25.8086)" stroke="#1D1D1D" stroke-linecap="round"/>
</svg>
